<svg xmlns="http://www.w3.org/2000/svg" width="372" height="92" fill="none"><path fill="#000" d="M148.644 24.026q-.375 2.467.053 4.667.484 2.145 1.717 3.808a10 10 0 0 0 3.165 2.682q1.931.966 4.452.966 3.756.054 6.759-1.448 3.059-1.556 5.418-3.594l-1.287 8.583a25 25 0 0 1-5.472 2.843q-2.842 1.019-6.598 1.019-4.184 0-7.51-1.502-3.326-1.556-5.525-4.238-2.146-2.736-3.058-6.276t-.322-7.51q.645-4.131 2.629-7.671a22.9 22.9 0 0 1 4.989-6.223 22.4 22.4 0 0 1 6.866-4.13q3.809-1.502 8.154-1.502 3.594-.054 6.169.965a17.4 17.4 0 0 1 4.881 2.897l-1.341 8.636a13.4 13.4 0 0 0-4.184-3.701q-2.468-1.449-6.008-1.448-2.521 0-4.828.912a14.8 14.8 0 0 0-4.238 2.575 15.8 15.8 0 0 0-3.165 3.862 13.9 13.9 0 0 0-1.716 4.828m24.397 6.437q.537-3.755 2.682-6.652a15.4 15.4 0 0 1 5.365-4.56q3.272-1.663 7.08-1.663 3.81 0 6.545 1.717 2.79 1.717 4.13 4.667 1.395 2.897.912 6.49-.483 3.702-2.628 6.599-2.147 2.896-5.418 4.56-3.219 1.662-7.081 1.663-3.755 0-6.545-1.663a10.96 10.96 0 0 1-4.13-4.614q-1.341-2.95-.912-6.544m6.974 0q-.269 1.77.268 3.38.536 1.608 1.77 2.574t3.058 1.02q1.93 0 3.54-.912a8.2 8.2 0 0 0 2.736-2.575 8 8 0 0 0 1.395-3.487q.268-1.878-.268-3.433a5.67 5.67 0 0 0-1.771-2.575q-1.233-1.02-3.111-1.02-1.824-.053-3.487.913a8.2 8.2 0 0 0-2.736 2.574 9 9 0 0 0-1.394 3.54M226.877.959h6.92l-7.242 41.842h-6.759zm-24.73 29.504q.483-3.702 2.414-6.598 1.986-2.897 4.882-4.614 2.95-1.716 6.276-1.663 2.522 0 4.238 1.073a7.9 7.9 0 0 1 2.736 2.897q1.019 1.77 1.341 4.077.321 2.307 0 4.828a17 17 0 0 1-1.395 4.989 15 15 0 0 1-2.628 4.077 11.5 11.5 0 0 1-3.648 2.789q-2.092.966-4.56.966-3.38 0-5.686-1.717-2.307-1.77-3.379-4.667-1.073-2.95-.591-6.437m7.081 0q-.267 1.824.215 3.487.537 1.608 1.77 2.575 1.235.965 3.111 1.019a6.3 6.3 0 0 0 2.522-.537 7.8 7.8 0 0 0 2.253-1.502 9.2 9.2 0 0 0 1.77-2.306 8.4 8.4 0 0 0 1.019-2.736q.214-1.449-.053-2.682a5.7 5.7 0 0 0-.859-2.2 4.94 4.94 0 0 0-1.609-1.609q-.966-.59-2.253-.644-1.878-.053-3.594.912-1.663.966-2.843 2.629a8.6 8.6 0 0 0-1.449 3.594m26.553-21.887q0-1.716 1.234-2.789a4.16 4.16 0 0 1 2.896-1.127q1.771 0 2.951 1.127 1.234 1.072 1.234 2.79 0 1.662-1.234 2.789-1.18 1.125-2.951 1.126a4.16 4.16 0 0 1-2.896-1.126q-1.234-1.126-1.234-2.79m-.858 9.549h6.759L237.444 42.8h-6.652zm24.927 9.656q.162-1.341-.053-2.468-.162-1.126-.859-1.824-.697-.75-2.199-.75-1.395 0-2.628.643a4.95 4.95 0 0 0-1.932 1.717q-.75 1.072-.965 2.52l-2.629 15.182h-6.866l4.238-24.676h6.866l-.536 3.54q1.287-1.93 3.165-3.004 1.877-1.073 4.398-1.073 2.95-.053 4.614 1.234 1.662 1.288 2.253 3.433.643 2.093.268 4.775l-2.736 15.77h-7.027zm8.804-9.656h7.081l2.896 13.518 9.442-15.503 4.291 15.61 7.671-13.625h7.403L291.077 44.57l-4.936-15.664-10.245 15.664zm57.23 0h6.759L328.405 42.8H321.7zm-21.94 12.338q.483-3.702 2.414-6.598 1.984-2.897 4.881-4.614 2.95-1.716 6.277-1.663 2.52 0 4.237 1.073a7.9 7.9 0 0 1 2.736 2.897q1.02 1.77 1.341 4.077.322 2.307 0 4.828a17 17 0 0 1-1.394 4.989 15 15 0 0 1-2.629 4.077 11.5 11.5 0 0 1-3.648 2.789q-2.091.966-4.559.966-3.38 0-5.687-1.717-2.306-1.77-3.379-4.667-1.073-2.95-.59-6.437m7.081 0q-.269 1.824.214 3.487.537 1.608 1.771 2.575 1.233.965 3.111 1.019 1.288 0 2.521-.537a7.8 7.8 0 0 0 2.253-1.502 9.2 9.2 0 0 0 1.77-2.306 8.4 8.4 0 0 0 1.019-2.736q.216-1.449-.053-2.682a5.7 5.7 0 0 0-.858-2.2 4.95 4.95 0 0 0-1.61-1.609q-.964-.59-2.253-.644-1.877-.053-3.594.912-1.662.966-2.843 2.629a8.6 8.6 0 0 0-1.448 3.594M339.24.959h6.92l-7.242 41.842h-6.759zm10.568 0h6.705l-7.188 41.842h-6.598zm12.284 17.166h8.476l-12.392 10.46 8.905 14.216h-7.832l-9.012-14.699zM146.871 77.292q-.929 0-1.629-.247a3 3 0 0 1-1.154-.687 2.36 2.36 0 0 1-.617-1.064l.714-.37q.142.48.48.85t.895.577q.565.214 1.369.214 1.44 0 2.426-.746.987-.74 1.239-2.27l.402-2.478h-.077a4.3 4.3 0 0 1-.863 1.154 4 4 0 0 1-1.213.785 3.9 3.9 0 0 1-1.505.286q-1.187 0-1.979-.61-.791-.61-1.109-1.713-.312-1.109-.065-2.608.253-1.498.934-2.653.681-1.161 1.68-1.816a3.94 3.94 0 0 1 2.212-.662q.864 0 1.441.331.576.324.914.863t.474 1.18h.091l.363-2.225h.765l-1.686 10.198q-.208 1.252-.831 2.07-.622.824-1.57 1.232-.94.41-2.101.409m.596-4.73q.993 0 1.817-.505.83-.513 1.395-1.453.564-.948.785-2.245.207-1.259-.013-2.251-.222-.993-.85-1.564-.623-.57-1.642-.57-1.024 0-1.855.584-.824.576-1.375 1.57a6.8 6.8 0 0 0-.753 2.231q-.207 1.245.007 2.193.214.94.837 1.479.623.532 1.647.532m7.261.786 1.661-9.965h.772l-.26 1.557h.072q.44-.765 1.297-1.226a3.8 3.8 0 0 1 1.843-.467h.207q.097 0 .195.007l-.136.798-.189-.02a1.4 1.4 0 0 0-.259-.02 3.37 3.37 0 0 0-2.718 1.343 3.15 3.15 0 0 0-.604 1.428l-1.089 6.565zm9.647.207q-1.246 0-2.109-.668-.856-.675-1.219-1.855t-.111-2.699q.247-1.48.974-2.627.732-1.155 1.79-1.81a4.2 4.2 0 0 1 2.27-.662q1.253 0 2.109.681.863.674 1.226 1.862.363 1.181.123 2.692-.246 1.473-.986 2.628-.733 1.147-1.79 1.803a4.25 4.25 0 0 1-2.277.655m.013-.733a3.46 3.46 0 0 0 1.959-.597q.895-.596 1.498-1.615a6.3 6.3 0 0 0 .811-2.277q.201-1.22-.058-2.206-.26-.992-.928-1.57-.668-.583-1.693-.583-1.058 0-1.959.603-.896.603-1.505 1.622a6.3 6.3 0 0 0-.811 2.27q-.207 1.213.052 2.206.266.985.934 1.57.674.577 1.7.577m8.783.526-1.323-9.965h.811l1.109 8.803h.071l4.035-8.803h.824l1.11 8.797h.065l4.035-8.797h.843l-4.645 9.965h-.882l-1.116-8.66h-.084l-3.97 8.66zm17.535 3.736a2.5 2.5 0 0 1-1.07-.233l.344-.694q.557.233 1.057.155.506-.07.947-.473.448-.402.843-1.142l.662-1.246-1.946-10.068h.811l1.674 8.953h.071l4.651-8.953h.889l-6.143 11.658a5 5 0 0 1-.805 1.135q-.441.454-.947.681a2.5 2.5 0 0 1-1.038.227m13.112-3.529q-1.245 0-2.108-.668-.856-.675-1.22-1.855-.363-1.18-.11-2.699.246-1.48.973-2.627.733-1.155 1.791-1.81a4.2 4.2 0 0 1 2.27-.662q1.252 0 2.109.681.862.674 1.226 1.862.363 1.181.123 2.692-.246 1.473-.986 2.628-.733 1.147-1.791 1.803a4.25 4.25 0 0 1-2.277.655m.013-.733q1.065 0 1.959-.597.896-.596 1.499-1.615a6.3 6.3 0 0 0 .811-2.277q.2-1.22-.059-2.206-.26-.992-.927-1.57-.669-.583-1.693-.583-1.058 0-1.959.603-.896.603-1.505 1.622a6.3 6.3 0 0 0-.811 2.27q-.208 1.213.052 2.206.265.985.934 1.57.674.577 1.699.577m13.923-3.01 1.071-6.429h.791l-1.66 9.965h-.792l.273-1.616h-.072q-.467.772-1.336 1.259a3.9 3.9 0 0 1-1.933.486q-.98 0-1.661-.428a2.4 2.4 0 0 1-.98-1.213q-.291-.792-.11-1.881l1.096-6.572h.792l-1.09 6.54q-.2 1.245.428 2.017.63.765 1.83.765a3.3 3.3 0 0 0 1.485-.35 3.41 3.41 0 0 0 1.868-2.543m3.481 3.536 1.661-9.965h.771l-.259 1.557h.071q.441-.765 1.298-1.226a3.8 3.8 0 0 1 1.842-.467h.208q.097 0 .194.007l-.136.798-.188-.02a1.4 1.4 0 0 0-.259-.02 3.36 3.36 0 0 0-2.719 1.343 3.16 3.16 0 0 0-.603 1.428l-1.09 6.565zm11.643 0 2.205-13.286h.785l-.908 5.546h.078q.33-.642.843-1.18a4 4 0 0 1 1.213-.863q.695-.33 1.544-.33 1.2 0 1.985.667.786.661 1.084 1.83.304 1.16.052 2.66-.247 1.505-.935 2.672-.681 1.161-1.686 1.83a3.9 3.9 0 0 1-2.206.661q-.856 0-1.44-.324a2.56 2.56 0 0 1-.921-.863 3.6 3.6 0 0 1-.467-1.194h-.091l-.363 2.174zm1.608-4.963q-.207 1.272 0 2.277.209 1 .824 1.583.617.577 1.635.577t1.855-.584q.837-.59 1.402-1.596.564-1.005.772-2.257.201-1.252-.007-2.251-.207-1-.824-1.576-.617-.585-1.641-.584-1.012 0-1.849.577-.83.57-1.395 1.57-.564.993-.772 2.264m16.147 1.427 1.07-6.429h.792l-1.661 9.965h-.791l.272-1.616h-.071q-.468.772-1.337 1.259a3.9 3.9 0 0 1-1.933.486q-.98 0-1.66-.428a2.4 2.4 0 0 1-.98-1.213q-.292-.792-.11-1.881l1.096-6.572h.792l-1.09 6.54q-.201 1.245.428 2.017.629.765 1.829.765.778 0 1.486-.35a3.41 3.41 0 0 0 1.868-2.543m11.109-4.281-.759.181a2.5 2.5 0 0 0-.35-.94 1.6 1.6 0 0 0-.701-.604q-.44-.213-1.109-.214-1.122 0-1.914.558t-.934 1.44q-.117.7.273 1.155.388.454 1.317.694l1.479.383q1.128.292 1.615.96.493.667.331 1.635a2.84 2.84 0 0 1-.681 1.453q-.545.623-1.389.973-.843.35-1.881.35-1.401 0-2.192-.655-.792-.661-.85-1.888l.785-.155q.045.966.635 1.472.59.5 1.681.5 1.239 0 2.095-.59.857-.591 1.005-1.506.111-.68-.253-1.141-.363-.461-1.219-.675l-1.512-.39q-1.18-.305-1.693-.972-.506-.675-.344-1.648.136-.792.649-1.395a3.5 3.5 0 0 1 1.31-.94 4.4 4.4 0 0 1 1.746-.338q1.278 0 1.978.603.7.597.882 1.694m1.598 7.817 1.661-9.965h.785l-1.661 9.965zm2.426-11.736a.63.63 0 0 1-.467-.188.59.59 0 0 1-.156-.473.58.58 0 0 1 .208-.409.65.65 0 0 1 .447-.175q.28 0 .461.194a.57.57 0 0 1 .162.461.6.6 0 0 1-.214.415.63.63 0 0 1-.441.175m3.536 5.274-1.071 6.462h-.791l1.66-9.965h.772l-.259 1.577h.078a3.4 3.4 0 0 1 1.323-1.24q.856-.465 1.92-.466 1 0 1.694.428.693.428.992 1.22.298.785.117 1.874l-1.096 6.572h-.792l1.09-6.54q.207-1.27-.402-2.043-.603-.778-1.843-.778a3.4 3.4 0 0 0-1.557.363 3.4 3.4 0 0 0-1.2 1.018 3.46 3.46 0 0 0-.635 1.518m12.487 6.67q-1.348 0-2.238-.669-.888-.668-1.239-1.83-.35-1.16-.104-2.646.248-1.492.987-2.66.74-1.167 1.809-1.842a4.26 4.26 0 0 1 2.31-.675 3.4 3.4 0 0 1 1.524.337 3.2 3.2 0 0 1 1.168.967q.474.623.655 1.512.181.888 0 1.998l-.091.493h-7.888l.123-.72h7.091q.181-1.077-.104-1.947-.285-.875-.947-1.388-.655-.513-1.609-.512-.973 0-1.855.564a5.1 5.1 0 0 0-1.505 1.492 5.5 5.5 0 0 0-.831 2.057l-.078.402q-.207 1.284.052 2.264.266.973.986 1.524.72.546 1.882.545.81 0 1.44-.272.636-.279 1.077-.675a4.3 4.3 0 0 0 .7-.765l.656.291a4.4 4.4 0 0 1-.857 1 4.9 4.9 0 0 1-1.343.823q-.784.331-1.771.331m14.348-8.025-.759.181a2.5 2.5 0 0 0-.35-.94 1.6 1.6 0 0 0-.7-.604q-.442-.213-1.11-.214-1.122 0-1.914.558t-.934 1.44q-.117.7.273 1.155.388.454 1.317.694l1.479.383q1.128.292 1.615.96.493.667.331 1.635a2.84 2.84 0 0 1-.681 1.453q-.546.623-1.388.973-.844.35-1.882.35-1.401 0-2.192-.655-.792-.661-.85-1.888l.785-.155q.045.966.635 1.472.59.5 1.681.5 1.239 0 2.095-.59.857-.591 1.005-1.506.111-.68-.253-1.141-.363-.461-1.219-.675l-1.512-.39q-1.18-.305-1.693-.972-.506-.675-.344-1.648.136-.792.649-1.395a3.5 3.5 0 0 1 1.311-.94 4.4 4.4 0 0 1 1.745-.338q1.278 0 1.978.603.7.597.882 1.694m9.188 0-.759.181a2.5 2.5 0 0 0-.35-.94 1.62 1.62 0 0 0-.701-.604q-.441-.213-1.109-.214-1.123 0-1.914.558-.792.558-.934 1.44-.117.7.272 1.155.39.454 1.317.694l1.479.383q1.129.292 1.616.96.493.667.33 1.635a2.82 2.82 0 0 1-.681 1.453 3.7 3.7 0 0 1-1.388.973q-.843.35-1.881.35-1.401 0-2.193-.655-.792-.661-.85-1.888l.785-.155q.045.966.636 1.472.59.5 1.68.5 1.24 0 2.095-.59.856-.591 1.006-1.506.11-.68-.253-1.141t-1.22-.675l-1.511-.39q-1.181-.305-1.693-.972-.507-.675-.344-1.648.136-.792.649-1.395a3.5 3.5 0 0 1 1.31-.94 4.4 4.4 0 0 1 1.745-.338q1.278 0 1.979.603.7.597.882 1.694m8.87 7.817-1.324-9.965h.811l1.109 8.803h.072l4.035-8.803h.824l1.109 8.797h.065l4.035-8.797h.843l-4.645 9.965h-.882l-1.116-8.66h-.084l-3.97 8.66zm12.422 0 1.661-9.965h.785l-1.661 9.965zm2.427-11.736a.63.63 0 0 1-.467-.188.58.58 0 0 1-.156-.473.58.58 0 0 1 .207-.409.65.65 0 0 1 .448-.175q.28 0 .461.194a.57.57 0 0 1 .162.461.6.6 0 0 1-.214.415.63.63 0 0 1-.441.175m6.857 1.771-.124.707h-4.346l.117-.707zm-2.491-2.387h.784l-1.647 9.997q-.104.61.065.999.175.382.525.57.357.182.811.182.201 0 .363-.032.162-.039.325-.084l.071.72a2.71 2.71 0 0 1-.954.162q-.623 0-1.128-.28a1.8 1.8 0 0 1-.759-.81q-.253-.532-.124-1.285zm5.841 5.89-1.07 6.462h-.792l2.206-13.286h.792l-.805 4.898h.078q.466-.779 1.317-1.24.85-.465 1.933-.466 1.005 0 1.7.428.693.42.992 1.213.298.785.117 1.881l-1.096 6.572h-.785l1.09-6.54q.207-1.277-.409-2.05-.61-.771-1.849-.771-.844 0-1.57.363-.72.364-1.213 1.018a3.5 3.5 0 0 0-.636 1.518m20.758 2.926 1.07-6.429h.791l-1.66 9.965h-.792l.273-1.616h-.072q-.466.772-1.336 1.259a3.9 3.9 0 0 1-1.933.486q-.98 0-1.661-.428a2.4 2.4 0 0 1-.979-1.213q-.293-.792-.111-1.881l1.097-6.572h.791l-1.09 6.54q-.2 1.245.428 2.017.63.765 1.83.765a3.3 3.3 0 0 0 1.485-.35 3.41 3.41 0 0 0 1.869-2.543m11.109-4.281-.759.181a2.5 2.5 0 0 0-.35-.94 1.62 1.62 0 0 0-.701-.604q-.441-.213-1.109-.214-1.122 0-1.914.558t-.934 1.44q-.117.7.272 1.155.39.454 1.317.694l1.479.383q1.129.292 1.616.96.493.667.33 1.635a2.82 2.82 0 0 1-.681 1.453 3.7 3.7 0 0 1-1.388.973q-.843.35-1.881.35-1.401 0-2.193-.655-.792-.661-.85-1.888l.785-.155q.045.966.636 1.472.59.5 1.68.5 1.24 0 2.095-.59.857-.591 1.006-1.506.11-.68-.253-1.141t-1.22-.675l-1.511-.39q-1.181-.305-1.693-.972-.507-.675-.344-1.648.136-.792.649-1.395a3.5 3.5 0 0 1 1.31-.94 4.4 4.4 0 0 1 1.745-.338q1.278 0 1.979.603.7.597.882 1.694"/><path fill="url(#a)" d="M143.242 52.586h222.116v.453H143.242z"/><path fill="#F87530" fill-rule="evenodd" d="M44.49 68.149c-1.716.306-3.48.467-5.28.467-14.559 0-25.779-11.421-25.779-27.483 0-15.3 12.403-27.702 27.702-27.702 13.87 0 25.36 10.194 27.385 23.499h13.536C79.95 16.187 62.431 0 41.134 0 18.415 0 0 18.416 0 41.133s16.493 40.914 39.21 40.914c1.777 0 3.54-.111 5.28-.328z" clip-rule="evenodd"/><path fill="#F87530" fill-rule="evenodd" d="M68.519 36.935c-2.023-13.307-13.514-23.504-27.386-23.504-2.916 0-5.728.451-8.368 1.287-8.734 2.518-21.94 10.542-32.723 28.3A42 42 0 0 1 0 41.134C0 18.416 18.416 0 41.133 0c21.3 0 38.819 16.19 40.922 36.935z" clip-rule="evenodd"/><path fill="#000" d="M38.984 39.685c1.554 0 2.82 1.252 2.82 2.79 0 1.21-.789 2.232-1.88 2.617V58.34l7.672-15.919-.943-1.4c-1.768-2.622-2.733-5.703-2.901-8.835h-9.537c-.167 3.132-1.133 6.213-2.9 8.836l-.944 1.4 7.673 15.918V45.092c-1.092-.385-1.88-1.407-1.88-2.618 0-1.537 1.265-2.789 2.82-2.789"/><rect width="1.813" height="1.813" fill="#F87530" rx=".907" transform="matrix(1 0 0 -1 38.077 63.918)"/><rect width="2.72" height="2.72" fill="#F87530" rx="1.36" transform="matrix(1 0 0 -1 37.624 43.973)"/><path fill="#F87530" d="M68.834 42.816h13.431V82.27H68.834zM108.289 12.594h13.431v69.674h-13.431z"/><path fill="#F87530" d="M108.338 82.273h13.372L96.1 44.195l-7.246 10.372z"/><g filter="url(#b)"><path fill="#F87530" d="m82.362 82.283-13.431.003 26.86-38.62 10.734 15.944c-4.197 0-10.493.425-13.85 6.718z"/></g><path fill="#000" d="M30.371 19.492h17.225v9.973H30.371z"/><rect width="4.638" height="4.638" x="54.641" y="50.82" fill="#F87530" rx="2.319" transform="rotate(114.179 54.641 50.82)"/><rect width="4.638" height="4.638" x="57.45" y="56.574" fill="#3270F3" rx="2.319" transform="rotate(114.179 57.45 56.574)"/><rect width="2.473" height="2.473" x="44.52" y="60.398" fill="#E9E700" rx="1.237" transform="rotate(114.179 44.52 60.398)"/><rect width="2.473" height="2.473" x="51.773" y="59.941" fill="#F87530" rx="1.237" transform="rotate(114.179 51.773 59.941)"/><rect width="2.473" height="2.473" x="49.053" y="56.77" fill="#E617EB" rx="1.237" transform="rotate(114.179 49.053 56.77)"/><rect width="1.93" height="1.93" x="47.882" y="61.535" fill="#099825" rx=".965" transform="rotate(114.179 47.882 61.535)"/><defs><linearGradient id="a" x1="143.242" x2="365.358" y1="52.813" y2="52.813" gradientUnits="userSpaceOnUse"><stop stop-color="#F87530" stop-opacity="0"/><stop offset=".485" stop-color="#FE6600"/><stop offset="1" stop-color="#F87530" stop-opacity="0"/></linearGradient><filter id="b" width="44.31" height="45.337" x="65.573" y="43.664" color-interpolation-filters="sRGB" filterUnits="userSpaceOnUse"><feFlood flood-opacity="0" result="BackgroundImageFix"/><feColorMatrix in="SourceAlpha" result="hardAlpha" values="0 0 0 0 0 0 0 0 0 0 0 0 0 0 0 0 0 0 127 0"/><feOffset dy="3.358"/><feGaussianBlur stdDeviation="1.679"/><feComposite in2="hardAlpha" operator="out"/><feColorMatrix values="0 0 0 0 0 0 0 0 0 0 0 0 0 0 0 0 0 0 0.18 0"/><feBlend in2="BackgroundImageFix" result="effect1_dropShadow_395_1957"/><feBlend in="SourceGraphic" in2="effect1_dropShadow_395_1957" result="shape"/></filter></defs></svg>